# xmcd
#
# Track frame offsets: 
#        150
#        19466
#        32768
#        74605
#        94236
#        126226
#        143350
#        160347
#        193770
#        202439
#        215334
#        239563
#        260619
#        276667
#        293412
#        312087
#
# Disc length: 4478 seconds
#
# Revision: 0
# Processed by: cddbd v1.5.2PL0 Copyright (c) Steve Scherf et al.
# Submitted via: ExactAudioCopy v0.95b3
#
DISCID=04117c10
DTITLE=George Smith and Bacon Fat - The Complete Horizon Sessions CD2
DYEAR=2006
DGENRE=
TTITLE0=1.Someday You're Gonna Learn (To Treat Me Right)
TTITLE1=2.Blue Switch
TTITLE2=3.Mississippi River Blues
TTITLE3=4.Before You Do Your Thing (You'D Better Think)
TTITLE4=5.I Don't Want To Go Baby
TTITLE5=6.Good Things
TTITLE6=7.Soul Feet
TTITLE7=8.No Time For Jive
TTITLE8=9.My Babe Pt. 2 (Previously Unreleased)
TTITLE9=10.I'm Ready (Previously Unreleased)
TTITLE10=11.Telephone Blues (Previously Unreleased)
TTITLE11=12.Forty Four (Previously Unreleased)
TTITLE12=13.Blues With A Feeling (Previously Unreleased)
TTITLE13=14.Summertime (Previously Unreleased)
TTITLE14=15.Got My Mojo Working (Previously Unreleased)
TTITLE15=16.Hamp's Boogie Woogie (Previously Unreleased)
EXTD=
EXTT0=
EXTT1=
EXTT2=
EXTT3=
EXTT4=
EXTT5=
EXTT6=
EXTT7=
EXTT8=
EXTT9=
EXTT10=
EXTT11=
EXTT12=
EXTT13=
EXTT14=
EXTT15=
PLAYORDER=
